<svg width="23" height="22" fill="none" xmlns="http://www.w3.org/2000/svg"><path opacity=".2" d="M11.893 0c-6.076 0-11 4.925-11 11s4.924 11 11 11c6.075 0 11-4.925 11-11s-4.925-11-11-11zM7.938 4.37c.227-.014.432.121.587.362l1.504 2.852c.158.338.068.7-.168.941l-.689.69a.337.337 0 00-.07.195c.263 1.023 1.065 1.966 1.772 2.614.707.65 1.466 1.527 2.453 1.735.122.034.271.047.358-.034l.8-.816c.277-.209.677-.31.971-.14h.014l2.714 1.603c.398.25.44.732.154 1.026l-1.869 1.854c-.276.283-.643.378-.999.379-1.576-.048-3.065-.821-4.287-1.616-2.008-1.46-3.85-3.271-5.005-5.46-.443-.917-.964-2.088-.914-3.112.004-.385.108-.763.38-1.011l1.869-1.87a.731.731 0 01.425-.193z" fill="#fff"/></svg>